# xmcd
# Track frame offsets:
# 150
# 19290
# 34129
# 52057
# 71059
# 92204
# 114257
# 133166
# 153944
# 169109
# 180613
# 195536
# 215642
# 229841
# 247125
# 263095
# 279027
#
# Disc length: 3880 seconds
# Revision: 0
# Processed by: cddbd v1.5.2PL0 Copyright (c) Steve Scherf et al.
# Submitted via: VisiTrax 2.10.3.257 - For more info visit www.synapsa.com
#
DISCID=f60f2611
DTITLE=Various Artist - She's Goin' Country:  Women of Country
DYEAR=2006
DGENRE=
TTITLE0=Andrews, Jessica - Who I Am
TTITLE1=Wright, Chely - Single White Female
TTITLE2=O'neal, Jamie - There is No Arizona
TTITLE3=Womack, Lee Ann - Ashes By Now
TTITLE4=Messina, Jo Dee - Burn
TTITLE5=Wynonna - To Be Loved By You
TTITLE6=Dalley, Amy - I Would Cry
TTITLE7=McEntire, Reba - Fallin' Out of Love
TTITLE8=Chambers, Kasey - Not Pretty Enough
TTITLE9=Loveless, Patty - Timber, I'm Falling In Love
TTITLE10=Judds, The - Mama He's Crazy
TTITLE11=Rimes, LeAnn - How Do I Live
TTITLE12=Roberts, Julie - Wake Up Older
TTITLE13=Elam, Katrina - I Won't Say Goodbye
TTITLE14=McCann, Lila - With You
TTITLE15=Trick Pony - On a Night Like This
TTITLE16=Dunn, Holly - Are You Ever Gonna Love Me
EXTD=sawdust
EXTT0=
EXTT1=
EXTT2=
EXTT3=
EXTT4=
EXTT5=
EXTT6=
EXTT7=
EXTT8=
EXTT9=
EXTT10=
EXTT11=
EXTT12=
EXTT13=
EXTT14=
EXTT15=
EXTT16=
PLAYORDER=
